<svg width="48.000000" height="55.000000" viewBox="0 0 48 55" fill="none" xmlns="http://www.w3.org/2000/svg" xmlns:xlink="http://www.w3.org/1999/xlink">
    <path id="Star 9" d="M30.0707 7.06201L28.1819 13.9761C28.0209 14.5654 27.5995 15.0488 27.0377 15.2886L20.3092 18.1606C18.6895 18.8521 18.6895 21.1479 20.3092 21.8394L27.0377 24.7114C27.5995 24.9512 28.0209 25.4346 28.1819 26.0239L30.0707 32.938C30.6072 34.9019 33.3928 34.9019 33.9293 32.938L35.8181 26.0239C35.9791 25.4346 36.4005 24.9512 36.9623 24.7114L43.6908 21.8394C45.3105 21.1479 45.3105 18.8521 43.6908 18.1606L36.9623 15.2886C36.4005 15.0488 35.9791 14.5654 35.8181 13.9761L33.9293 7.06201C33.3928 5.09814 30.6072 5.09814 30.0707 7.06201Z" fill="#EDDDE6" fill-opacity="1.000000" fill-rule="evenodd"/>
    <path id="Star 10" d="M9.06836 34.1992L8.44983 36.5049C8.29187 37.0933 7.87427 37.5776 7.31531 37.8208L4.22034 39.1655C2.61658 39.8628 2.61658 42.1372 4.22034 42.8345L7.31531 44.1792C7.87427 44.4224 8.29187 44.9067 8.44983 45.4951L9.06836 47.8008C9.59839 49.7764 12.4016 49.7764 12.9316 47.8008L13.5502 45.4951C13.7081 44.9067 14.1257 44.4224 14.6847 44.1792L17.7797 42.8345C19.3834 42.1372 19.3834 39.8628 17.7797 39.1655L14.6847 37.8208C14.1257 37.5776 13.7081 37.0933 13.5502 36.5049L12.9316 34.1992C12.4016 32.2236 9.59839 32.2236 9.06836 34.1992Z" fill="#EDDDE6" fill-opacity="1.000000" fill-rule="evenodd"/>
</svg>
