<svg width="26" height="30" viewBox="0 0 26 30" fill="none" xmlns="http://www.w3.org/2000/svg">
    <path d="M11.0707 2.06213C11.6072 0.0982199 14.3928 0.0982218 14.9293 2.06214L16.8181 8.97608C16.9791 9.56529 17.4005 10.0486 17.9622 10.2884L24.6908 13.1606C26.3105 13.852 26.3105 16.148 24.6908 16.8394L17.9622 19.7116C17.4005 19.9514 16.9791 20.4347 16.8181 21.0239L14.9293 27.9379C14.3928 29.9018 11.6072 29.9018 11.0707 27.9379L9.18188 21.0239C9.02092 20.4347 8.59952 19.9514 8.03776 19.7116L1.30922 16.8394C-0.310543 16.148 -0.310541 13.852 1.30923 13.1606L8.03776 10.2884C8.59952 10.0486 9.02092 9.56529 9.18188 8.97608L11.0707 2.06213Z" fill="#EDDDE6"/>
</svg>
