<svg width="136" height="136" viewBox="0 0 136 136" fill="none" xmlns="http://www.w3.org/2000/svg">
    <g clip-path="url(#clip0_242_1907)">
        <rect y="31.9351" width="108" height="108" rx="54" transform="rotate(-17.1992 0 31.9351)" fill="#CBE510"/>
        <path d="M76.4582 50.6648L76.5012 50.6515M50.6656 58.6486L50.7086 58.6353M110.541 54.2467C117.89 77.9881 104.602 103.192 80.8601 110.541C57.1186 117.89 31.9149 104.601 24.5661 80.8593C17.2172 57.1178 30.506 31.9141 54.2475 24.5653C77.9889 17.2164 103.193 30.5052 110.541 54.2467ZM78.6076 49.9995C78.975 51.1865 78.3106 52.4467 77.1235 52.8142C75.9364 53.1816 74.6762 52.5172 74.3088 51.3301C73.9414 50.143 74.6058 48.8828 75.7929 48.5154C76.9799 48.148 78.2401 48.8124 78.6076 49.9995ZM52.815 57.9832C53.1824 59.1703 52.518 60.4305 51.3309 60.7979C50.1438 61.1654 48.8836 60.501 48.5162 59.3139C48.1487 58.1268 48.8132 56.8666 50.0003 56.4992C51.1873 56.1317 52.4475 56.7962 52.815 57.9832ZM74.8722 91.1962C85.6213 87.869 91.7777 77.3287 89.5595 70.1627L50.8706 82.1384C53.0887 89.3044 64.1232 94.5235 74.8722 91.1962Z" stroke="black" stroke-width="5" stroke-linecap="round" stroke-linejoin="round"/>
    </g>
    <defs>
        <clipPath id="clip0_242_1907">
            <rect y="31.9351" width="108" height="108" rx="54" transform="rotate(-17.1992 0 31.9351)" fill="white"/>
        </clipPath>
    </defs>
</svg>
