<svg width="183" height="44" viewBox="0 0 183 44" fill="none" xmlns="http://www.w3.org/2000/svg">
    <path d="M14.5691 38.5C20.2447 38.5 20.8298 32.9415 20.8298 23.3457V20.7128C20.8298 11.117 20.2447 5.55851 14.5691 5.55851C8.89362 5.55851 8.30851 11.117 8.30851 20.7128V23.3457C8.30851 32.9415 8.89362 38.5 14.5691 38.5ZM14.5691 44C3.80319 44 0 37.9734 0 24.9255V19.133C0 6.0266 3.80319 0 14.5691 0C25.3351 0 29.1383 6.0266 29.1383 19.133V24.9255C29.1383 37.9734 25.3351 44 14.5691 44Z" fill="#EDDDE6"/>
    <path d="M52.4438 43.2394L46.2417 24.5745C45.481 24.633 44.7204 24.6915 43.9598 24.6915H40.9172V43.2394H33.0768V0.819148H44.1938C54.9598 0.819148 59.8747 3.2766 59.8747 12.4043C59.8747 18.4309 57.5342 21.2979 53.3215 22.8777L60.5768 43.2394H52.4438ZM40.9172 19.7766H44.1938C49.9864 19.7766 51.6832 18.6064 51.6832 12.9894C51.6832 7.43085 49.9864 6.14362 44.1938 6.14362H40.9172V19.7766Z" fill="#EDDDE6"/>
    <path d="M63.7194 43.2394V0.819148H71.5599V43.2394H63.7194Z" fill="#EDDDE6"/>
    <path d="M90.041 38.5C95.7165 38.5 96.3016 32.9415 96.3016 23.3457V20.7128C96.3016 11.117 95.7165 5.55851 90.041 5.55851C84.3655 5.55851 83.7804 11.117 83.7804 20.7128V23.3457C83.7804 32.9415 84.3655 38.5 90.041 38.5ZM90.041 44C79.275 44 75.4719 37.9734 75.4719 24.9255V19.133C75.4719 6.0266 79.275 0 90.041 0C100.807 0 104.61 6.0266 104.61 19.133V24.9255C104.61 37.9734 100.807 44 90.041 44Z" fill="#EDDDE6"/>
    <path d="M108.549 43.2394V0.819148H117.735L128.793 33.117V0.819148H135.873V43.2394H126.628L115.628 10.9415V43.2394H108.549Z" fill="#EDDDE6"/>
    <path fill-rule="evenodd" clip-rule="evenodd" d="M140.085 20.7715L181.042 20.7715L181.042 23.346L140.085 23.346L140.085 20.7715Z" fill="#EDDDE6"/>
    <path fill-rule="evenodd" clip-rule="evenodd" d="M179.463 43.2981V0.87793L182.037 0.87793V43.2981H179.463Z" fill="#EDDDE6"/>
    <path fill-rule="evenodd" clip-rule="evenodd" d="M181.869 21.202V22.8569L161.487 43.2395H158.177L179.387 22.0294L158.177 0.819336H161.487L181.869 21.202Z" fill="#EDDDE6"/>
</svg>
