<svg width="1205" height="870" viewBox="0 0 1205 870" fill="none" xmlns="http://www.w3.org/2000/svg">
    <path d="M876.898 7.71437C886.603 -1.30184 901.929 -1.30184 899.613 7.71437L855.013 181.359C853.335 187.892 861.409 190.248 870.767 185.957L1119.51 71.8894C1132.42 65.9666 1140.72 72.8608 1131.8 82.1078L960.113 260.199C953.654 266.899 956.023 273.22 964.735 272.532L1196.32 254.258C1208.34 253.309 1206.97 264.908 1194.29 271.45L950.02 397.445C940.831 402.185 936.742 410.464 942.043 413.598L1082.94 496.919C1090.26 501.245 1079.66 513.867 1067.23 515.627L827.938 549.523C818.936 550.798 809.688 558.407 809.894 564.368L815.373 722.83C815.657 731.058 799.196 740.695 790.974 737.114L632.628 668.149C626.671 665.555 615.2 670.077 610.246 676.972L478.567 860.265C471.73 869.782 454.63 873.375 453.222 865.59L426.098 715.66C425.078 710.02 415.026 710.02 406.485 715.66L179.456 865.59C167.667 873.375 155.358 869.782 161.21 860.265L273.921 676.972C278.161 670.077 272.719 665.555 263.303 668.149L13.004 737.114C0.00764529 740.695 -3.60382 731.058 7.65111 722.83L224.412 564.368C232.566 558.407 233.463 550.798 226.161 549.523L32.0596 515.627C21.9812 513.867 28.2148 501.245 41.2989 496.919L293.289 413.598C302.769 410.464 309.719 402.185 306.849 397.445L230.572 271.45C226.612 264.908 240.711 253.309 251.47 254.258L458.685 272.532C466.481 273.22 477.277 266.899 479.751 260.199L545.516 82.1078C548.93 72.8608 566.419 65.9666 571.438 71.8894L668.088 185.957C671.724 190.248 682.94 187.892 689.972 181.359L876.898 7.71437Z" fill="#0D15AB"/>
</svg>
