<svg width="1165" height="842" viewBox="0 0 1165 842" fill="none" xmlns="http://www.w3.org/2000/svg">
    <path d="M318.032 7.71435C308.326 -1.30186 293 -1.30185 295.316 7.71436L338.171 174.563C339.849 181.096 331.775 183.452 322.417 179.161L83.4124 69.5578C70.497 63.635 62.2002 70.5291 71.115 79.7762L236.086 250.898C242.545 257.597 240.176 263.918 231.464 263.231L8.94688 245.672C-3.07761 244.723 -1.71114 256.322 10.9721 262.864L245.682 383.928C254.872 388.668 258.96 396.947 253.66 400.081L118.278 480.141C110.962 484.467 121.558 497.089 133.983 498.849L363.913 531.419C372.916 532.694 382.163 540.302 381.957 546.263L376.693 698.523C376.409 706.751 392.87 716.388 401.092 712.807L553.241 646.542C559.198 643.947 570.669 648.469 575.623 655.365L702.149 831.484C708.986 841.001 726.086 844.594 727.494 836.809L753.556 692.747C754.576 687.107 764.629 687.107 773.169 692.747L991.313 836.809C1003.1 844.594 1015.41 841.001 1009.56 831.484L901.259 655.365C897.019 648.469 902.461 643.947 911.877 646.542L1152.38 712.807C1165.38 716.388 1168.99 706.751 1157.73 698.523L949.456 546.263C941.301 540.302 940.405 532.694 947.707 531.419L1134.21 498.849C1144.29 497.089 1138.06 484.467 1124.97 480.141L882.844 400.081C873.364 396.947 866.414 388.668 869.284 383.928L942.576 262.864C946.536 256.322 932.437 244.723 921.677 245.672L722.572 263.231C714.777 263.918 703.98 257.597 701.506 250.898L638.316 79.7762C634.901 70.5291 617.412 63.635 612.394 69.5578L519.526 179.161C515.89 183.452 504.674 181.096 497.642 174.563L318.032 7.71435Z" fill="#0D15AB"/>
</svg>
